<?xml version="1.0" encoding="UTF-8"?>
<svg width="120px" height="37px" viewBox="0 0 120 37" version="1.1" xmlns="http://www.w3.org/2000/svg" xmlns:xlink="http://www.w3.org/1999/xlink">
    <title>g18</title>
    <g id="Symbols" stroke="none" stroke-width="1" fill="none" fill-rule="evenodd">
        <g id="NAV-BAR" transform="translate(-58.000000, -30.000000)">
            <g id="Prolius-Fleet_RGB-WO" transform="translate(58.000000, 28.926244)">
                <g id="g10" transform="translate(60.000000, 19.000000) scale(-1, 1) rotate(-180.000000) translate(-60.000000, -19.000000) translate(0.000000, 0.000000)">
                    <g id="g16" transform="translate(0.000000, 0.468268)">
                        <g id="g18-Clipped" transform="translate(0.000000, 0.000000)">
                            <g id="g18" transform="translate(-0.000001, 0.137220)">
                                <g id="g24" transform="translate(0.772446, 0.160796)" fill-rule="nonzero">
                                    <g id="Group-2" transform="translate(0.012348, 0.001647)">
                                        <g id="Group-3" transform="translate(0.398148, 0.216131)">
                                            <path d="M28.8605155,28.8731309 C28.7779083,28.9557381 28.6873422,29.0248976 28.6033628,29.1055837 C32.9395548,24.6851378 32.9178739,17.5894262 28.5295378,13.2013645 C28.2726596,12.9442119 28.0059014,12.7046236 27.7314589,12.4795807 C26.637531,11.5818792 25.4140662,10.9358414 24.1288518,10.5329598 C22.117188,9.90229087 19.9554042,9.86771111 17.9031229,10.3940919 C16.7543065,10.6885687 15.6395209,11.1570421 14.6059704,11.7978654 L14.6059704,2.41220529 C14.6059704,0.91814015 15.4054215,0.0646238763 16.8632602,0.000404323862 C16.9793494,5.32907052e-15 17.095713,-0.000419003733 17.2118022,0.00150209399 L17.2137233,0.00150209399 L17.9031229,0.0283974621 C21.8915963,0.256459206 25.8114589,1.87704236 28.8605155,4.92609888 C35.4732083,11.5387917 35.4732083,22.2604381 28.8605155,28.8731309" id="path26" fill="#CADAE0"></path>
                                            <path d="M28.529675,13.2012273 C32.9180111,17.589289 32.9394176,24.6852751 28.6035,29.1057209 C28.5768791,29.1309696 28.5486115,29.1537484 28.5219906,29.1792715 C21.887068,35.4692199 11.4612706,35.3330964 4.9136207,28.8729937 C-0.894132156,23.1437314 -1.58188514,13.8810215 3.00185402,7.23155337 C0.438560778,11.5666476 1.00665682,17.2407469 4.73248863,20.9665788 C9.07773723,25.3118274 16.0751985,25.3700092 20.5033287,21.1608841 C20.5738604,21.0939201 20.6493321,21.0354638 20.7184917,20.9665788 L20.7182172,20.9663043 C20.7591092,20.9278824 20.8021966,20.8944004 20.8419908,20.8546062 C23.0260045,18.6703181 23.0260045,15.1289117 20.8419908,12.944898 C19.1549926,11.2578998 16.6611333,10.8799924 14.6058332,11.7991004 L14.6058332,11.7977282 C18.9631572,9.0972137 24.7481314,9.41940923 28.529675,13.2012273" id="path30" fill="#EE7845"></path>
                                            <path d="M4.73248863,20.9665513 C1.00665682,17.2407195 0.438560778,11.5668946 3.00185402,7.23152593 C3.53427254,6.46830125 4.1289895,5.73581413 4.80164815,5.0497078 C4.84116787,5.00963919 4.87382653,4.96600283 4.9136207,4.92620866 C6.77434107,3.06521385 8.96576468,1.74761526 11.2941351,0.933893151 L11.2941351,11.5421948 L11.2979773,11.546037 L11.2979773,16.8932753 L11.3119739,16.8932753 C11.3086806,18.3266886 11.8380802,19.7603764 12.9322826,20.8545788 C15.007617,22.9299132 18.3058674,23.0295358 20.5033287,21.1608566 C16.0751985,25.3699817 9.07773723,25.3117999 4.73248863,20.9665513" id="path34" fill="#345D82"></path>
                                        </g>
                                    </g>
                                </g>
                                <g id="g28" transform="translate(1.170593, 7.542065)"></g>
                                <g id="g32" transform="translate(2.347677, 1.310820)"></g>
                                <g id="g36" transform="translate(70.144780, 7.326463)" fill="#355E81" fill-rule="nonzero">
                                    <path d="M6.58662076,3.01886785 C4.73770143,3.01886785 3.23348191,4.63286438 3.23348191,6.61598611 C3.23348191,8.59938229 4.73770143,10.2131044 6.58662076,10.2131044 C8.4355401,10.2131044 9.93948517,8.59938229 9.93948517,6.61598611 C9.93948517,4.63286438 8.4355401,3.01886785 6.58662076,3.01886785 M6.58662076,13.0313547 C3.10943388,13.0313547 0.171526582,10.0934474 0.171526582,6.61598611 C0.171526582,3.13879924 3.10943388,0.200617491 6.58662076,0.200617491 C10.0638076,0.200617491 13.0019894,3.13879924 13.0019894,6.61598611 C13.0019894,10.0934474 10.0638076,13.0313547 6.58662076,13.0313547" id="path38"></path>
                                </g>
                                <g id="g40" transform="translate(90.520519, 21.622915)" fill="#355E81" fill-rule="nonzero">
                                    <path d="M1.92109772,3.56775291 C0.892487113,3.56775291 0.145454542,2.82072034 0.145454542,1.79210973 C0.145454542,0.763499123 0.892487113,0.0167409944 1.92109772,0.0167409944 C2.94970833,0.0167409944 3.69619202,0.763499123 3.69619202,1.79210973 C3.69619202,2.82072034 2.94970833,3.56775291 1.92109772,3.56775291" id="path42"></path>
                                </g>
                                <g id="g44" transform="translate(109.671064, 7.301269)" fill="#355E81" fill-rule="nonzero">
                                    <path d="M5.76329317,7.95883342 C4.48082322,8.34387629 3.69454536,8.61420219 3.69454536,9.27560869 C3.69454536,9.71718672 4.18469972,10.1867579 5.09337895,10.1867579 C6.27265851,10.1867579 7.05125197,9.32363613 7.0592108,9.31512841 L7.27849038,9.06730681 L9.29097747,11.0808917 L9.12493974,11.2966035 C9.07087456,11.3663119 7.779348,13.0047338 5.09337895,13.0047338 C2.42415088,13.0047338 0.631766708,11.076775 0.631766708,9.27560869 C0.631766708,6.6423326 2.80205825,5.98943381 4.54559165,5.46469969 C5.82861049,5.07938238 6.61516278,4.80905648 6.61516278,4.14764998 C6.61516278,3.19313886 5.7215779,2.99224692 4.97152646,2.99224692 C3.3237735,2.99224692 2.29873065,4.32082322 2.28857627,4.3342709 L2.07286444,4.61914225 L0.0493996557,2.59430525 L0.200343048,2.38106341 C0.263739273,2.29104625 1.79485416,0.174271008 4.97152646,0.174271008 C7.65392777,0.174271008 9.67739255,1.88267577 9.67739255,4.14764998 C9.67739255,6.78092607 7.50737546,7.4340993 5.76329317,7.95883342" id="path46"></path>
                                </g>
                                <g id="g48" transform="translate(90.910228, 7.437667)" fill="#355E81" fill-rule="nonzero">
                                    <path d="M0,12.6243565 L0,8.82963957 L0,8.78764987 L0,6.38051442 L0,2.56164659 C0,1.23087475 0.632864478,0.406998275 1.79814747,0.19403087 C1.99766719,0.138044593 2.21228125,0.118559174 2.44253853,0.118559174 L3.06222977,0.118559174 L3.06222977,0.186072037 L3.06222977,0.204185244 L3.06222977,0.414957108 L3.06222977,2.12802739 L3.06222977,2.1461406 L3.06222977,6.38051442 L3.06222977,7.64240118 L3.06222977,8.82963957 L3.06222977,12.6243565 L0,12.6243565 Z" id="path50"></path>
                                </g>
                                <g id="g52" transform="translate(62.262187, 7.402429)" fill="#355E81" fill-rule="nonzero">
                                    <path d="M6.31217823,12.898799 C6.29708389,12.898799 6.28775284,12.9020923 6.27210962,12.9020923 C4.25111482,12.9020923 3.15087471,11.4722467 3.15087471,11.4722467 L3.15087471,12.6597595 L2.21914231,12.6597595 L0.0886449377,12.6597595 L0.0886449377,2.55615774 C0.0886449377,0.997049718 0.954785568,0.130909088 2.53118347,0.130909088 L3.15087471,0.130909088 L3.15087471,0.19842195 L3.15087471,0.427307022 L3.15087471,2.1403773 L3.15087471,6.97687804 C3.15087471,8.92322448 4.17591756,10.085763 5.89337893,10.085763 L7.30264133,10.085763 L7.30264133,12.9040134 L6.38161219,12.9040134 C6.35801013,12.9040134 6.33578029,12.8990734 6.31217823,12.898799" id="path54"></path>
                                </g>
                                <g id="g56" transform="translate(47.201357, 7.487396)" fill="#355E81" fill-rule="nonzero">
                                    <path d="M7.20411645,9.39965671 L3.36274434,9.39965671 L3.36274434,14.8849396 L7.20411645,14.8849396 C8.7420924,14.8849396 9.94662067,13.6804113 9.94662067,12.1421609 C9.94662067,10.6039105 8.7420924,9.39965671 7.20411645,9.39965671 M7.20411645,17.9474438 L0.0557118288,17.9474438 L0.0557118288,13.2761575 L0.0557118288,2.47108055 C0.0557118288,0.91224697 0.921578016,0.0458318977 2.49825036,0.0458318977 C2.50950251,0.0458318977 2.52020576,0.0472041103 2.53118347,0.0474785528 C2.51993132,0.0472041103 2.50922806,0.0458318977 2.49797592,0.0458318977 L2.53118347,0.0458318977 L3.36246989,0.0458318977 L3.36246989,0.17070325 L3.36274434,0.17070325 L3.36274434,2.0668267 L3.36274434,6.33742694 L7.20411645,6.33742694 C10.5959517,6.33742694 13.2531043,8.8872725 13.2531043,12.1421609 C13.2531043,15.3975982 10.5959517,17.9474438 7.20411645,17.9474438" id="path58"></path>
                                </g>
                                <g id="g60" transform="translate(85.173994, 7.485255)" fill="#355E81" fill-rule="nonzero">
                                    <path d="M0,8.78216102 L0,6.33276142 L0,2.51416803 L0,2.49605483 C0,0.937221246 0.865866188,0.0708061732 2.44253853,0.0708061732 L3.06222977,0.0708061732 L3.06222977,0.138319036 L3.06222977,0.156432243 L3.06222977,0.367204107 L3.06222977,2.08054883 L3.06222977,2.0983876 L3.06222977,6.33276142 L3.06222977,7.59464818 L3.06222977,8.78216102 L3.06222977,19.6264832 L0,19.6264832 L0,8.78216102 Z" id="path62"></path>
                                </g>
                                <g id="g64" transform="translate(96.653267, 7.325118)" fill="#355E81" fill-rule="nonzero">
                                    <path d="M8.30188658,6.0377357 C8.29667217,5.39307019 8.17180082,4.84198959 7.95197235,4.3858661 C7.51698094,3.48267573 6.69420223,2.96837042 5.56130346,2.96837042 C5.44329317,2.96837042 5.33269283,2.98730696 5.22017139,3.00130353 C3.95389355,3.16240129 3.06305309,4.19430521 3.06305309,5.58874772 L3.06305309,12.7368779 L0.000823322449,12.7368779 L0.000823322449,5.58874772 C0.000823322449,2.33605483 2.03938245,0.150394507 5.07307019,0.150394507 C6.14668938,0.150394507 7.02270994,0.47588335 7.66078883,0.830188658 C7.66572879,0.832933084 7.66984543,0.834030854 7.67478539,0.836775279 C7.67945092,0.839519705 7.68356756,0.841715245 7.68823308,0.84445967 C7.69756412,0.849674078 7.7057974,0.854888486 7.714854,0.860102894 C8.09385914,1.07608917 8.35677509,1.27094336 8.53845604,1.43286446 C8.89495689,0.651801013 9.64665499,0.231080612 10.7441507,0.231080612 L11.3641163,0.231080612 L11.3641163,0.249193819 L11.3641163,0.298593475 L11.3641163,0.527478546 L11.3641163,2.24054883 L11.3641163,12.7368779 L8.30188658,12.7368779 L8.30188658,6.0377357 Z" id="path66"></path>
                                </g>
                            </g>
                        </g>
                    </g>
                </g>
            </g>
        </g>
    </g>
</svg>
